<svg width="35" height="35" viewBox="0 0 35 35" fill="none" xmlns="http://www.w3.org/2000/svg">
<path d="M34.314 17.157C34.314 26.6116 26.6446 34.3141 17.157 34.3141C7.66942 34.3141 0 26.6446 0 17.157C0 7.66942 7.66942 0 17.157 0C26.6446 0 34.314 7.70248 34.314 17.157Z" fill="#ED1D24"/>
<path d="M27.5035 24.132C27.5035 24.8263 26.9416 25.3883 26.2473 25.3883C25.5531 25.3883 24.9911 24.8263 24.9911 24.132C24.9911 23.4378 25.5531 22.8759 26.2473 22.8759C26.9746 22.8759 27.5035 23.4378 27.5035 24.132Z" fill="white"/>
<path d="M12.0331 24.8255C10.7108 23.4371 11.7356 20.7594 11.967 18.5115C11.6695 18.809 8.85956 25.3875 6.28105 25.3875C6.24799 25.3875 6.18188 25.3875 6.14882 25.3875C3.80171 25.1561 4.09923 21.9164 4.8265 19.966H8.5951C7.43807 23.1726 9.02485 21.8503 10.1158 19.8338C12.2976 15.4041 12.3306 15.3049 14.7108 8.6272H18.8761C17.6529 12.4289 16.5951 15.8338 16.0992 19.7677C16.0992 19.8999 16.1653 20.0652 16.3306 19.9991C17.1901 19.8669 21.8513 9.35447 22.281 8.6272H26.4463C26.4463 8.6272 22.0166 20.8586 22.7439 22.0156C23.1075 22.6768 23.6034 21.4206 24.0662 20.9247L24.7273 21.5859C23.5042 22.9413 22.1158 25.4206 20.1653 25.4206C20.0001 25.4206 19.8678 25.3875 19.7025 25.3875C19.405 25.3214 19.1075 25.1561 18.9091 24.9578C16.6612 23.0074 20.7273 15.7346 20.2976 15.2718C20.1653 15.2718 20.0331 15.6355 19.8017 16.1313C18.5786 18.6768 15.7356 25.4206 13.3885 25.4206C12.9918 25.3875 12.4298 25.2553 12.0331 24.8255Z" fill="white"/>
</svg>
