<svg width="30" height="31" viewBox="0 0 30 31" fill="none" xmlns="http://www.w3.org/2000/svg">
<path d="M30 15.9788C30 24.2598 23.281 30.9788 15 30.9788C6.71901 30.9788 0 24.2598 0 15.9788C0 7.69776 6.71901 0.97876 15 0.97876C23.281 0.97876 30 7.69776 30 15.9788Z" fill="white"/>
<path d="M27.868 15.9791C27.868 23.07 22.116 28.8469 15.0003 28.8469C7.88457 28.8469 2.13251 23.0948 2.13251 15.9791C2.13251 8.86339 7.88457 3.11133 15.0003 3.11133C22.116 3.11133 27.868 8.88819 27.868 15.9791Z" fill="#ED1D24"/>
<path d="M22.7606 21.2106C22.7606 21.7312 22.3391 22.1527 21.8184 22.1527C21.2978 22.1527 20.8763 21.7312 20.8763 21.2106C20.8763 20.6899 21.2978 20.2684 21.8184 20.2684C22.3639 20.2684 22.7606 20.6899 22.7606 21.2106Z" fill="white"/>
<path d="M11.1572 21.7301C10.1654 20.6887 10.934 18.6805 11.1076 16.9945C10.8844 17.2177 8.77701 22.1515 6.84312 22.1515C6.81833 22.1515 6.76875 22.1515 6.74395 22.1515C4.98362 21.978 5.20676 19.5482 5.75222 18.0854H8.57866C7.71089 20.4904 8.90098 19.4987 9.71916 17.9863C11.3555 14.6639 11.3803 14.5896 13.1654 9.5813H16.2894C15.3721 12.4325 14.5787 14.9863 14.2068 17.9367C14.2068 18.0358 14.2563 18.1598 14.3803 18.1102C15.0249 18.011 18.5208 10.1268 18.8431 9.5813H21.9671C21.9671 9.5813 18.6448 18.7549 19.1902 19.6226C19.463 20.1185 19.8349 19.1763 20.182 18.8044L20.6778 19.3003C19.7605 20.3168 18.7192 22.1763 17.2563 22.1763C17.1324 22.1763 17.0332 22.1515 16.9092 22.1515C16.6861 22.102 16.463 21.978 16.3142 21.8292C14.6282 20.3664 17.6778 14.9119 17.3555 14.5648C17.2563 14.5648 17.1572 14.8375 16.9836 15.2094C16.0663 17.1185 13.934 22.1763 12.1737 22.1763C11.8762 22.1515 11.4547 22.0524 11.1572 21.7301Z" fill="white"/>
</svg>
