<svg width="25" height="26" viewBox="0 0 25 26" fill="none" xmlns="http://www.w3.org/2000/svg">
<path d="M0 5.66626C0 3.07743 2.09867 0.97876 4.6875 0.97876H20.3125C22.9013 0.97876 25 3.07743 25 5.66626V21.2913C25 23.8801 22.9013 25.9788 20.3125 25.9788H4.6875C2.09867 25.9788 0 23.8801 0 21.2913V5.66626Z" fill="#78BD20"/>
<path d="M20.2523 7.67538C20.6271 5.62181 20.0505 4.19324 17.6866 4.19324H10.3352L9.64336 7.79443H15.8992C16.274 7.79443 16.3893 8.00276 16.3316 8.44919L15.5244 12.7349H11.6325L12.2091 9.75871L3.21454 14.223H9.90282L9.32624 17.1992L15.2361 14.2825L14.4578 18.5087C14.3424 18.9254 14.1406 19.1337 13.6794 19.1337H7.4812L6.81814 22.7647H14.1983C16.5334 22.7647 17.6866 21.3361 18.0325 19.2825L20.2523 7.67538Z" fill="black"/>
</svg>
